<svg width="231px" height="135px" viewBox="616 380 231 135" version="1.1" xmlns="http://www.w3.org/2000/svg" xmlns:xlink="http://www.w3.org/1999/xlink">
    <g id="cloud" stroke="none" stroke-width="1" fill="none" fill-rule="evenodd" transform="translate(618.000000, 382.000000)">
        <path d="M179.229967,21.5527553 C170.772187,16.2496145 160.360087,15.085565 150.94,18.39 C136.503543,2.85977542 114.533825,-3.1848824 94.1847784,2.77460221 C73.8357319,8.73408681 58.5977841,25.6754967 54.82,46.54 C39.2638786,42.0027534 22.4819918,46.726428 11.5766008,58.7119179 C0.671209837,70.6974078 -2.45130017,87.8495143 3.53054806,102.909296 C9.51239629,117.969077 23.5529084,128.303914 39.71,129.54 C40.4335076,129.625833 41.1614192,129.66924 41.89,129.67 L179.21,129.67 C179.84,129.67 180.45,129.67 181.07,129.59 C181.9,129.59 182.74,129.67 183.59,129.67 C205.006208,129.581362 223.047108,113.648922 225.783139,92.4080186 C228.51917,71.1671154 215.104674,51.1829203 194.41,45.67 C193.271065,35.7211873 187.687747,26.855896 179.229967,21.5527553 Z" id="face" stroke="#FFFFFF" stroke-width="5" fill="#FFFFFF"></path>
        <path d="M90,120.946706 C90,120.946706 102.12206,119 113.016123,119 C123.910186,119 134,120.946706 134,120.946706" id="mouth" stroke="#747474" stroke-width="2" stroke-linecap="round"></path>
        <g id="left" transform="translate(55.000000, 95.000000)">
            <circle id="black" fill="#747474" cx="8" cy="8" r="8"></circle>
            <circle id="white" fill="#FFFFFF" cx="14" cy="7" r="2"></circle>
        </g>
        <g id="right" transform="translate(153.000000, 95.000000)">
            <circle id="black" fill="#747474" cx="8" cy="8" r="8"></circle>
            <circle id="white" fill="#FFFFFF" cx="14" cy="7" r="2"></circle>
        </g>
    </g>
</svg>




